<?xml version="1.0" encoding="utf-8"?>
<!-- Generator: Adobe Illustrator 28.3.0, SVG Export Plug-In . SVG Version: 6.00 Build 0)  -->
<svg version="1.1" id="Layer_1" xmlns="http://www.w3.org/2000/svg" xmlns:xlink="http://www.w3.org/1999/xlink" x="0px" y="0px"
	 viewBox="0 0 213 213" style="enable-background:new 0 0 213 213;" xml:space="preserve">
<style type="text/css">
	.st0{fill:#68BF2D;}
</style>
<g id="Layer_1_00000041275752456663121840000003874521646530604479_">
</g>
<path class="st0" d="M50.5,76.8c0,6.5,0,13,0,19.5c0,1.6,0.4,3.9-2.1,3.9s-2.1-2.3-2.1-3.9c-0.1-13-0.1-26,0-39
	c0-1.6-0.2-3.9,2.4-3.6c2.1,0.2,1.9,2.2,1.9,3.6C50.5,63.8,50.5,70.3,50.5,76.8z"/>
<path class="st0" d="M50.5,131.5c0,6,0.1,12,0,18c0,1.7,0.6,4.3-2.2,4.3c-2.4,0-2-2.4-2-4c-0.1-12.1-0.1-24.3,0-36.4
	c0-1.6-0.4-4,2-4c2.8-0.1,2.2,2.5,2.3,4.2C50.6,119.5,50.5,125.5,50.5,131.5z"/>
<path class="st0" d="M80.2,18.2c0,4.7-2.6,7.3-7.3,7.2c-4.7,0-7.2-2.7-7.1-7.4c0.1-4.5,2.5-6.9,7-7C77.6,11,80.2,13.6,80.2,18.2z"/>
<path class="st0" d="M73,31.7c4.7,0,7.3,2.6,7.2,7.3c0,4.7-2.7,7.2-7.4,7.1c-4.5-0.1-6.9-2.5-7-7C65.8,34.3,68.3,31.7,73,31.7z"/>
<path class="st0" d="M96.7,55.4c0,4.7-2.7,7.2-7.4,7.1c-4.6-0.1-7.1-2.8-7-7.5c0.1-4.4,2.6-6.8,7.2-6.8
	C94.2,48.1,96.8,50.7,96.7,55.4z"/>
<path class="st0" d="M80.2,65.8c-0.1,4.6-2.8,7.1-7.5,7c-4.6-0.1-7.1-2.9-6.8-7.7c0.2-4.4,2.7-6.7,7.3-6.7
	C77.8,58.5,80.3,61.1,80.2,65.8z"/>
<path class="st0" d="M128.4,79c-4.6-0.1-7.1-2.8-7-7.5c0.1-4.6,2.9-7.1,7.7-6.8c4.4,0.2,6.8,2.7,6.7,7.3
	C135.8,76.5,133.1,79.1,128.4,79z"/>
<path class="st0" d="M110.3,81c-4.7,0.1-7.4-2.4-7.4-7.1c0-4.7,2.5-7.3,7.2-7.3c4.5,0,7,2.4,7.1,6.8C117.4,78.2,114.9,80.9,110.3,81
	z"/>
<path class="st0" d="M82.3,77.8c0.2-4.7,2.8-7.1,7.6-7c4.6,0.2,7.1,2.9,6.8,7.7c-0.2,4.5-3.1,7-7.9,6.6
	C84.3,84.8,82.1,82.4,82.3,77.8z"/>
<path class="st0" d="M80.2,84.4c-0.2,4.7-2.9,7.1-7.6,6.9c-4.6-0.2-7-3-6.8-7.7c0.2-4.5,3.1-6.9,7.9-6.6
	C78.3,77.3,80.5,79.8,80.2,84.4z"/>
<path class="st0" d="M149.3,99.6c-4.7,0-7.3-2.5-7.3-7.2c0-4.7,2.6-7.2,7.4-7.1c4.5,0.1,6.9,2.5,7,7C156.5,96.9,154,99.5,149.3,99.6
	z"/>
<path class="st0" d="M130.9,87.3c4.6,0.1,7.1,2.8,7,7.5c-0.1,4.6-2.9,7-7.7,6.8c-4.4-0.2-6.7-2.7-6.7-7.3
	C123.6,89.7,126.2,87.2,130.9,87.3z"/>
<path class="st0" d="M93.9,93.4c4.6,0.1,7.1,2.8,7,7.5c-0.2,4.6-2.9,7.1-7.7,6.8c-4.4-0.2-6.7-2.7-6.7-7.3
	C86.5,95.9,89.1,93.3,93.9,93.4z"/>
<path class="st0" d="M119.3,100.7c0,4.7-2.7,7.2-7.4,7.1c-4.6-0.1-7.1-2.8-7-7.5c0.1-4.5,2.6-6.8,7.1-6.8
	C116.8,93.4,119.4,96,119.3,100.7z"/>
<path class="st0" d="M80.2,104.5c0.1,4.7-2.4,7.4-7.1,7.4c-4.7,0-7.3-2.5-7.3-7.2c0-4.5,2.4-7,6.8-7.2
	C77.4,97.4,80.1,99.9,80.2,104.5z"/>
<path class="st0" d="M89.5,114c4.7,0,7.3,2.6,7.2,7.3c-0.1,4.5-2.5,6.9-7,7c-4.8,0.1-7.5-2.4-7.4-7C82.4,116.5,84.8,114,89.5,114z"
	/>
<path class="st0" d="M80.3,127.4c-0.1,4.8-2.6,7.3-7.3,7.2c-4.7-0.1-7.2-2.7-7.1-7.5c0.1-4.6,2.9-7.1,7.6-6.9
	C78,120.4,80.4,122.9,80.3,127.4z"/>
<path class="st0" d="M109.1,148.1c0,4.7-2.7,7.2-7.4,7.1c-4.6-0.1-7.1-2.8-7-7.5c0.1-4.4,2.6-6.8,7.1-6.8
	C106.6,140.8,109.1,143.3,109.1,148.1z"/>
<path class="st0" d="M82.8,163.4c-4.4-0.1-6.7-2.6-6.7-7.2c0-4.7,2.6-7.2,7.4-7.2c4.6,0.1,7.2,2.8,7,7.5
	C90.4,161.2,87.8,163.5,82.8,163.4z"/>
<path class="st0" d="M73.2,177.8c-4.7,0.1-7.4-2.4-7.4-7.1c0-4.7,2.5-7.2,7.3-7.2c4.5,0,6.9,2.3,7.1,6.8
	C80.4,175,77.9,177.7,73.2,177.8z"/>
<path class="st0" d="M91.5,181.9c4.7,0,7.3,2.5,7.3,7.2c0,4.7-2.6,7.2-7.4,7.1c-4.5-0.1-6.9-2.5-7-7C84.3,184.6,86.8,182,91.5,181.9
	z"/>
<path class="st0" d="M80.2,193.1c0.1,4.7-2.5,7.3-7.2,7.3c-4.7,0-7.3-2.6-7.2-7.3c0-4.5,2.4-7,6.9-7.1
	C77.5,185.9,80.2,188.4,80.2,193.1z"/>
<path class="st0" d="M112.2,170.7c0,4.7-2.7,7.2-7.4,7.1c-4.6-0.1-7.1-2.8-7-7.5c0.1-4.4,2.6-6.8,7.1-6.8
	C109.7,163.4,112.2,166,112.2,170.7z"/>
<path class="st0" d="M128.6,124.4c0,4.7-2.7,7.2-7.4,7.1c-4.6-0.1-7.1-2.8-7-7.5c0.1-4.4,2.6-6.8,7.1-6.8
	C126.1,117.1,128.7,119.7,128.6,124.4z"/>
<path class="st0" d="M113.7,53.7c0,4.7-2.7,7.2-7.4,7.1c-4.6-0.1-7.1-2.8-7-7.5c0.1-4.4,2.6-6.8,7.1-6.8
	C111.2,46.4,113.7,49,113.7,53.7z"/>
<path class="st0" d="M169.2,104.8c0,4.7-2.7,7.2-7.4,7.1c-4.6-0.1-7.1-2.8-7-7.5c0.1-4.4,2.6-6.8,7.1-6.8
	C166.7,97.5,169.3,100.1,169.2,104.8z"/>
<path class="st0" d="M110.1,131.6c0,4.7-2.7,7.2-7.4,7.1c-4.6-0.1-7.1-2.8-7-7.5c0.1-4.4,2.6-6.8,7.1-6.8
	C107.6,124.3,110.2,126.9,110.1,131.6z"/>
<path class="st0" d="M149.2,119.2c0,4.7-2.7,7.2-7.4,7.1c-4.6-0.1-7.1-2.8-7-7.5c0.1-4.4,2.6-6.8,7.1-6.8
	C146.7,111.9,149.3,114.5,149.2,119.2z"/>
<path class="st0" d="M102.8,37.4c0,4.7-2.7,7.2-7.4,7.1c-4.6-0.1-7.1-2.8-7-7.5c0.1-4.4,2.6-6.8,7.1-6.8
	C100.3,30.1,102.9,32.6,102.8,37.4z"/>
<path class="st0" d="M174.3,81.1c0,4.7-2.7,7.2-7.4,7.1c-4.6-0.1-7.1-2.8-7-7.5c0.1-4.4,2.6-6.8,7.1-6.8
	C171.8,73.8,174.3,76.4,174.3,81.1z"/>
<path class="st0" d="M130.7,41c0,4.7-2.7,7.2-7.4,7.1c-4.6-0.1-7.1-2.8-7-7.5c0.1-4.4,2.6-6.8,7.1-6.8
	C128.2,33.7,130.7,36.3,130.7,41z"/>
</svg>
