<?xml version="1.0" encoding="utf-8"?>
<!-- Generator: Adobe Illustrator 28.3.0, SVG Export Plug-In . SVG Version: 6.00 Build 0)  -->
<svg version="1.1" id="Layer_1" xmlns="http://www.w3.org/2000/svg" xmlns:xlink="http://www.w3.org/1999/xlink" x="0px" y="0px"
	 viewBox="0 0 200 200" style="enable-background:new 0 0 200 200;" xml:space="preserve">
<style type="text/css">
	.st0{fill:#1C75BC;}
	.st1{fill:none;stroke:#000000;stroke-width:1.4173;stroke-linecap:round;stroke-linejoin:round;stroke-miterlimit:10;}
	.st2{fill:#FFFFFF;stroke:#000000;stroke-width:1.4173;stroke-miterlimit:10;}
	.st3{fill:none;stroke:#FFFFFF;stroke-miterlimit:10;}
</style>
<g>
	<g>
		<path id="ma439893ff4_2_" class="st0" d="M199.1,52.6v0.3h-2h-2h-2h-2.1h-2h-2h-2h-2h-2h-2.1h-2h-2h-2.1h-2h-2.4h-2h-2h-2.1h-2
			h-2.1h-2h-2.1h-2h-2h-2h-2h-2.1h-2h-2.2h-2.1h-2.1h-2h-2h-2h-2h-2h-2.1h-2h-2h-2h-2.1h-2.3h-2h-2.1h-2h-2h-2.1h-2H100h-2H96h-2h-2
			h-2.1h-2.1h-2h-2h-2h-2h-2.1h-2h-2h-2.2h-2.1h-2h-2h-2h-2h-2.1h-2h-2.1h-2h-2h-2.1h-2h-2.3h-2h-2.1h-2h-2h-2.1h-2h-2.1h-2h-2h-2
			h-2h-2.1h-2h-2.2h-2h-2.1h-2h-2h-2h-2H3.1h-2h-2v-0.1l0,0h2h2h2.1h2l2-0.1l2-0.1l2-0.1l2.1-0.1l2-0.1l2-0.1l2-0.1l2.1-0.1l2-0.1
			l2-0.1l2-0.2l2-0.3l2.1-0.3l2-0.4l2.1-0.5l2-0.6l2-0.7l2.1-0.8l2-0.9l2-0.9l2-1l2.1-1.1l2-1.3l2-1.3l2.1-1.4l2-1.4l2.1-1.5l2-1.6
			l2-1.8l2-2l2-2.1l2.1-2l2-1.8l2-1.6l2-1.4l2.1-1.3l2-1.2l2-1.2l2-1.3l2-1.5l2.1-1.7l2.1-1.9l2-1.9l2-1.8l2.1-1.5l2-0.9l2-0.4
			l2,0.2l2.1,0.6l2,0.8l2,0.9l2.1,0.9l2,0.9l2,1.1l2.1,1.2l2,1.5l2,1.7l2,1.8l2.1,2l2,2.1l2,2.1l2,2.1l2,2l2,1.9l2.1,1.7l2.1,1.6
			l2,1.5l2,1.5l2.1,1.4l2,1.3l2,1.3l2,1.3l2,1.2l2.1,1.2l2,1.1l2.1,1.1l2,0.9l2.1,0.9l2,0.7l2,0.6l2.1,0.5l2,0.4l2.1,0.3l2,0.3
			l2,0.2l2.1,0.2l2,0.2l2,0.2l2,0.2l2,0.2l2,0.1l2.1,0.1l2,0.1l2,0.1L199.1,52.6z"/>
		<path class="st1" d="M161,52.8H49.3"/>
		<path id="mff3b34de01_5_" class="st2" d="M110.4,52.8c0-1.6-0.6-3.2-1.8-4.2c-1.1-1.1-2.6-1.8-4.2-1.8s-3.1,0.6-4.2,1.8
			s-1.8,2.6-1.8,4.2s0.6,3.2,1.8,4.2c1.1,1.1,2.6,1.8,4.2,1.8s3.1-0.6,4.2-1.8C109.6,55.9,110.4,54.4,110.4,52.8z"/>
	</g>
	<g>
		<path d="M29.5,63h16.7c13,0,23.6,10.6,23.6,23.6v11.1c0,13-10.6,23.6-23.6,23.6H29.5c-3.8,0-6.9-3.1-6.9-6.9V70
			C22.6,66.1,25.7,63,29.5,63z M36.4,76.9v30.6h9.7c5.4,0,9.7-4.3,9.7-9.7V86.6c0-5.4-4.3-9.7-9.7-9.7H36.4z"/>
		<path d="M78.1,97.4c0-1.5,0.7-2.9,1.6-4l22.2-27.8c1.2-1.6,3.2-2.6,5.4-2.6h11.1c3.8,0,6.9,3.1,6.9,6.9v44.4
			c0,3.8-3.1,6.9-6.9,6.9c-3.8,0-6.9-3.1-6.9-6.9v-9.7H92v9.7c0,3.8-3.1,6.9-6.9,6.9c-3.8,0-6.9-3.1-6.9-6.9V97.4z M99.5,90.8h11.9
			V76.9h-0.9L99.5,90.8z"/>
		<path d="M133.7,114.4V70c0-3.8,3.1-6.9,6.9-6.9h22.2c10,0,18.1,8.1,18.1,18.1c0,4.3-1.2,8-3.7,11.1c2.2,3,3.7,7.1,3.7,11.1
			c0,10-8.1,18.1-18.1,18.1h-22.2C136.8,121.3,133.7,118.2,133.7,114.4z M163.3,85.2c2,0,3.7-1.9,3.7-4.2c0-2.3-1.9-4.2-4.2-4.2
			h-15.3v8.3H163.3z M162.8,107.5c2.3,0,4.2-1.9,4.2-4.2c0-2.3-1.9-4.2-4.2-4.2h-15.3v8.3H162.8z"/>
		<path d="M36.4,165.8v8.3h26.4c3.8,0,6.9,3.1,6.9,6.9s-3.1,6.9-6.9,6.9H29.5c-3.8,0-6.9-3.1-6.9-6.9v-44.4c0-3.8,3.1-6.9,6.9-6.9
			h33.3c3.8,0,6.9,3.1,6.9,6.9c0,3.8-3.1,6.9-6.9,6.9H36.4v8.3h26.4c3.8,0,6.9,3.1,6.9,6.9c0,3.8-3.1,6.9-6.9,6.9H36.4z"/>
		<path d="M107.3,188H85.1c-3.8,0-6.9-3.1-6.9-6.9s3.1-6.9,6.9-6.9h22.2c2.3,0,4.2-1.9,4.2-4.2c0-2.3-1.9-4.2-4.2-4.2H96.2
			c-10,0-18.1-8.1-18.1-18.1c0-10,8.1-18.1,18.1-18.1h22.2c3.8,0,6.9,3.1,6.9,6.9c0,3.8-3.1,6.9-6.9,6.9H96.2
			c-2.3,0-4.2,1.9-4.2,4.2c0,2.3,1.9,4.2,4.2,4.2h11.1c10,0,18.1,8.1,18.1,18.1C125.3,179.9,117.3,188,107.3,188z"/>
		<path d="M173.9,129.7c3.8,0,6.9,3.1,6.9,6.9c0,3.8-3.1,6.9-6.9,6.9h-9.7v37.5c0,3.8-3.1,6.9-6.9,6.9s-6.9-3.1-6.9-6.9v-37.5h-9.7
			c-3.8,0-6.9-3.1-6.9-6.9c0-3.8,3.1-6.9,6.9-6.9H173.9z"/>
	</g>
	<rect x="0.4" class="st3" width="200" height="200"/>
</g>
</svg>
