<?xml version="1.0" encoding="utf-8"?>
<!-- Generator: Adobe Illustrator 28.3.0, SVG Export Plug-In . SVG Version: 6.00 Build 0)  -->
<svg version="1.1" id="Layer_1" xmlns="http://www.w3.org/2000/svg" xmlns:xlink="http://www.w3.org/1999/xlink" x="0px" y="0px"
	 viewBox="0 0 200 200" style="enable-background:new 0 0 200 200;" xml:space="preserve">
<style type="text/css">
	.st0{fill:#FFFFFF;stroke:#FFFFFF;stroke-width:1.4173;stroke-miterlimit:10;}
	.st1{fill:none;stroke:#1C75BC;stroke-width:6;stroke-miterlimit:10;}
	.st2{fill:#1575BC;}
	.st3{fill:#B1DFF9;}
	.st4{fill:none;stroke:#000000;stroke-width:1.4173;stroke-linecap:round;stroke-linejoin:round;stroke-miterlimit:10;}
	.st5{fill:#FFFFFF;stroke:#000000;stroke-width:1.4173;stroke-miterlimit:10;}
</style>
<g id="Layer_3">
	<rect x="1.4" y="1.4" class="st0" width="198.6" height="196.9"/>
</g>
<g id="Layer_1_00000003788486286081883270000012940283318737338034_">
	<g id="Layer_1_00000134970676927988489680000008788756067643073971_">
	</g>
	<rect x="5.7" y="5.3" class="st1" width="189.2" height="189.2"/>
	<path class="st2" d="M16.9,54.2c0-1.8,1.5-3.3,3.3-3.3h13.3c9.1,0,16.6,7.5,16.6,16.6v8.9c0,9.1-7.5,16.6-16.6,16.6H20.2
		c-1.8,0-3.3-1.5-3.3-3.3C16.9,89.7,16.9,54.2,16.9,54.2z M23.6,57.5v28.8h10c5.5,0,10-4.4,10-10v-8.9c0-5.5-4.4-10-10-10L23.6,57.5
		L23.6,57.5z"/>
	<path class="st2" d="M61.2,76c0-0.5,0.3-1.3,0.7-1.8L79.6,52c0.5-0.7,1.5-1.2,2.6-1.2h8.9c1.8,0,3.3,1.5,3.3,3.3v35.5
		c0,1.8-1.5,3.3-3.3,3.3s-3.3-1.5-3.3-3.3v-10H67.9v10c0,1.8-1.5,3.3-3.3,3.3c-1.8,0-3.3-1.5-3.3-3.3L61.2,76L61.2,76z M71.5,73
		h16.3V57.5h-3.9L71.5,73z"/>
	<g>
		<path class="st2" d="M20.2,148.8c-1.8,0-3.3-1.5-3.3-3.3v-35.9c0-1.8,1.5-3.3,3.3-3.3h18c6.8,0,12.3,5.6,12.3,12.3
			c0,3.5-1.5,6.7-3.9,9c2.4,2.2,3.9,5.5,3.9,9c0,6.8-5.6,12.3-12.3,12.3L20.2,148.8L20.2,148.8z M38.2,124.2c3,0,5.6-2.5,5.6-5.6
			s-2.5-5.6-5.6-5.6H23.6v11.2L38.2,124.2L38.2,124.2z M23.6,130.8v11.2h14.7c3,0,5.6-2.5,5.6-5.6s-2.4-5.5-5.4-5.6h-0.2L23.6,130.8
			L23.6,130.8z"/>
		<path class="st2" d="M68.4,130.8v11.2H92c1.8,0,3.3,1.5,3.3,3.3c0,1.8-1.5,3.3-3.3,3.3H65.1c-1.8,0-3.3-1.5-3.3-3.3v-35.9
			c0-1.8,1.5-3.3,3.3-3.3H92c1.8,0,3.3,1.5,3.3,3.3s-1.5,3.3-3.3,3.3H68.4v11.2H92c1.8,0,3.3,1.5,3.3,3.3s-1.5,3.3-3.3,3.3
			L68.4,130.8L68.4,130.8z"/>
		<path class="st2" d="M127.8,148.8h-17.9c-1.8,0-3.3-1.5-3.3-3.3c0-1.8,1.5-3.3,3.3-3.3h17.9c3,0,5.6-2.5,5.6-5.6s-2.5-5.6-5.6-5.6
			h-9c-6.8,0-12.3-5.6-12.3-12.3s5.6-12.3,12.3-12.3h17.9c1.8,0,3.3,1.5,3.3,3.3s-1.5,3.3-3.3,3.3h-17.9c-3,0-5.6,2.5-5.6,5.6
			s2.5,5.6,5.6,5.6h9c6.8,0,12.3,5.6,12.3,12.3C140.1,143.3,134.5,148.8,127.8,148.8z"/>
		<path class="st2" d="M181.5,106.3c1.8,0,3.3,1.5,3.3,3.3s-1.5,3.3-3.3,3.3h-10.1v32.4c0,1.8-1.5,3.3-3.3,3.3
			c-1.8,0-3.3-1.5-3.3-3.3v-32.4h-10.1c-1.8,0-3.3-1.5-3.3-3.3s1.5-3.3,3.3-3.3L181.5,106.3L181.5,106.3z"/>
	</g>
</g>
<g id="Layer_2_00000172413067741380503260000005074161464073114538_">
	<g>
		<path id="ma439893ff4_2_" class="st3" d="M188.4,89.3v0.2h-0.9h-0.9h-0.9h-0.9h-0.9H183h-0.9h-0.9h-0.9h-0.9h-0.9h-0.9h-0.9h-0.9
			h-1.1h-0.9h-0.9H172h-0.9h-0.9h-0.9h-0.9h-0.9h-0.9h-0.9h-0.9h-0.9H163h-1h-1h-0.9h-0.9h-0.9h-0.9h-0.9h-0.9h-0.9h-0.9h-0.9H152
			h-0.9h-1h-0.9h-0.9h-0.9h-0.9h-0.9h-0.9h-0.9h-0.9H142h-1h-0.9h-0.9h-0.9h-0.9h-0.9h-0.9h-0.9h-0.9h-0.9H132h-1h-1h-0.9h-0.9h-0.9
			h-0.9h-0.9h-0.9h-0.9h-0.9h-0.9H121h-1h-1h-0.9h-0.9h-0.9h-0.9h-0.9h-0.9h-0.9h-0.9h-0.9H110h-0.9h-0.9h-0.9h-1h-0.9h-0.9h-0.9
			h-0.9h-0.9h-0.9H100h-1h-0.9v-0.1l0,0H99h0.9h0.9h0.9l0.9-0.1l0.9-0.1l0.9-0.1l0.9-0.1l0.9-0.1l0.9-0.1l0.9-0.1l0.9-0.1l0.9-0.1
			l0.9-0.1l0.9-0.2l0.9-0.2l0.9-0.3l0.9-0.3l0.9-0.4l0.9-0.5l0.9-0.6l0.9-0.6l0.9-0.7l0.9-0.7l0.9-0.8l0.9-0.9l0.9-1l0.9-1l0.9-1.1
			l0.9-1.1l0.9-1.1l0.9-1.2L128,75l0.9-1.5l0.9-1.6l0.9-1.5l0.9-1.4l0.9-1.2l0.9-1.1l0.9-1l0.9-0.9l0.9-0.9l0.9-1l0.9-1.1l0.9-1.3
			l0.9-1.4l0.9-1.5l0.9-1.4l0.9-1.1l0.9-0.7l0.9-0.3l0.9,0.2l0.9,0.5l0.9,0.6l0.9,0.7l0.9,0.7l0.9,0.7l0.9,0.8l0.9,0.9l0.9,1.1
			l0.9,1.3l0.9,1.4l0.9,1.5l0.9,1.6l0.9,1.6l0.9,1.6l0.9,1.5l0.9,1.4l0.9,1.3l0.9,1.2l0.9,1.2l0.9,1.1l0.9,1.1l0.9,1l0.9,1l0.9,1
			l0.9,0.9l0.9,0.9l0.9,0.9l0.9,0.8l0.9,0.7l0.9,0.7l0.9,0.6l0.9,0.5l0.9,0.4l0.9,0.3l0.9,0.3l0.9,0.2l0.9,0.2l0.9,0.2l0.9,0.2
			l0.9,0.2l0.9,0.2l0.9,0.2l0.9,0.1l0.9,0.1l0.9,0.1l0.9,0.1L188.4,89.3z"/>
		<path class="st4" d="M171.2,89.5h-50.4"/>
		<path id="mff3b34de01_5_" class="st5" d="M149.3,89.5c0-0.9-0.3-1.7-1-2.3c-0.6-0.6-1.5-1-2.3-1c-0.9,0-1.7,0.3-2.3,1
			c-0.6,0.6-1,1.4-1,2.3s0.3,1.7,1,2.3c0.6,0.6,1.5,1,2.3,1c0.9,0,1.7-0.3,2.3-1C148.9,91.2,149.3,90.4,149.3,89.5z"/>
		<path id="mff3b34de01_00000009583791193901069980000002548175493764930981_" class="st5" d="M149.3,89.5c0-0.9-0.3-1.7-1-2.3
			c-0.6-0.6-1.5-1-2.3-1c-0.9,0-1.7,0.3-2.3,1c-0.6,0.6-1,1.4-1,2.3s0.3,1.7,1,2.3c0.6,0.6,1.5,1,2.3,1c0.9,0,1.7-0.3,2.3-1
			C148.9,91.2,149.3,90.4,149.3,89.5z"/>
	</g>
</g>
</svg>
