<?xml version="1.0" encoding="utf-8"?>
<!-- Generator: Adobe Illustrator 28.3.0, SVG Export Plug-In . SVG Version: 6.00 Build 0)  -->
<svg version="1.1" id="Layer_1" xmlns="http://www.w3.org/2000/svg" xmlns:xlink="http://www.w3.org/1999/xlink" x="0px" y="0px"
	 viewBox="0 0 200 200" style="enable-background:new 0 0 200 200;" xml:space="preserve">
<style type="text/css">
	.st0{fill:#031CFF;}
	.st1{fill:#F1F2F2;}
</style>
<g>
	<path id="ma439893ff4_00000173873680607509312570000009832779852797151638_" class="st0" d="M200,192.3h-2.7H195h-2.2h-2.2h-2.2
		h-2.2H184h-2.3h-2.2h-2.2H175h-2.2h-2.6h-2.2h-2.2h-2.3h-2.2h-2.3h-2.2h-2.3h-2.2h-2.2H148h-2.2h-2.3h-2.2h-2.4h-2.3h-2.3h-2.2H130
		h-2.2h-2.2h-2.2h-2.3h-2.2h-2.2h-2.2h-2.3h-2.5h-2.2h-2.3H103h-2.2h-2.3h-2.2H94h-2.2h-2.3h-2.2h-2.2h-2.3h-2.3h-2.2h-2.2H74h-2.2
		h-2.3h-2.2h-2.2h-2.4h-2.3h-2.2h-2.2h-2.2h-2.2h-2.3h-2.2h-2.3h-2.2h-2.2h-2.3H36h-2.5h-2.2H29h-2.2h-2.2h-2.3h-2.2h-2.3h-2.2h-2.2
		h-2.2H9.1H6.8H4.6H2.2H0v-1.6l2.2-0.5l2.2-0.3l2.2-0.5l2.3-0.5l2.2-0.5l2.2-0.5l2.2-0.8l2.2-1.1l2.3-1.3l2.2-1.6l2.3-2.1l2.2-2.4
		l2.2-2.9l2.3-3.2l2.2-3.4l2.2-3.7l2.2-4l2.3-4.5l2.2-5l2.2-5.3l2.3-5.6l2.2-5.6l2.3-5.8l2.2-6.3l2.2-7.1l2.2-7.9l2.2-8.2l2.3-7.9
		l2.2-7.1l2.2-6.3l2.2-5.6l2.3-5l2.2-4.8l2.2-4.8l2.2-5l2.2-5.8l2.3-6.6l2.3-7.4l2.2-7.7l2.2-7.1l2.3-5.8l2.2-3.7l2.2-1.6l2.2,0.8
		l2.3,2.4l2.2,3.2l2.2,3.7l2.3,3.7l2.2,3.7l2.2,4.2l2.3,4.8l2.2,5.8l2.2,6.6l2.2,7.1l2.3,7.9l2.2,8.2l2.2,8.2l2.2,8.2l2.2,7.9
		l2.2,7.4l2.3,6.9l2.3,6.3l2.2,6.1l2.2,5.8l2.3,5.6l2.2,5.3l2.2,5l2.2,5l2.2,4.8l2.3,4.8l2.2,4.5l2.3,4.2l2.2,3.7l2.3,3.4l2.2,2.9
		l2.2,2.4l2.3,2.1l2.2,1.6l2.3,1.3l2.2,1.1l2.2,0.8l2.3,0.8l2.2,0.8l2.2,0.8l2.2,0.8l2.2,0.8l2.2,0.5l2.3,0.5l2.2,0.5l2.2,0.3
		L200,192.3z"/>
	<g>
		<path class="st1" d="M97.4,74.5c2.8,0,5.1-0.3,5.6-0.2c0.5,1.7,1.9,5.7,3.4,9.2c4.8,11.5,20,47.6,30.4,69
			c2.3,4.8,4.3,8.1,6.4,11.5c-0.5,1.2-2,4.2-2.9,5.3c-11.2,0-15.5-0.6-45.4-0.6c-30.2,0-32.3,0.2-41.6,0.6c-0.5-1.1-0.9-2.9-1.1-4
			c8.5-13.8,31.6-69.6,36.5-81.6c0.8-2,2.6-7.1,3.3-9.5C92.2,74.4,94.4,74.5,97.4,74.5z M67.1,156c-0.5,1.2,0.3,2.2,0.9,2.2
			c5.4,0.9,18.5,1.2,29,1.2c8.1,0,17.1,0,18.5-0.5c0.6,0,1.1-1.4,0.9-1.7c-1.2-4.2-22.8-54.3-25.1-59.9c-0.3-0.3-0.8-0.2-1.1,0.2
			C83.2,115.7,70.1,148.2,67.1,156z"/>
	</g>
</g>
</svg>
