<?xml version="1.0" encoding="utf-8"?>
<!-- Generator: Adobe Illustrator 28.3.0, SVG Export Plug-In . SVG Version: 6.00 Build 0)  -->
<svg version="1.1" id="Layer_1" xmlns="http://www.w3.org/2000/svg" xmlns:xlink="http://www.w3.org/1999/xlink" x="0px" y="0px"
	 viewBox="0 0 212.3 212" style="enable-background:new 0 0 212.3 212;" xml:space="preserve">
<style type="text/css">
	.st0{fill:#B1DFF9;}
	.st1{fill:none;stroke:#000000;stroke-width:1.4173;stroke-linecap:round;stroke-linejoin:round;stroke-miterlimit:10;}
	.st2{fill:#FFFFFF;stroke:#000000;stroke-width:1.4173;stroke-miterlimit:10;}
</style>
<path id="ma439893ff4_2_" class="st0" d="M212.3,200.3v1h-2.1h-2.1H206h-2.2h-2.1h-2.1h-2.1h-2.1h-2.1h-2.2H189h-2.1h-2.2h-2.1h-2.5
	H178h-2.1h-2.2h-2.1h-2.2h-2.1h-2.2H163h-2.1h-2.1h-2.1h-2.2h-2.1h-2.3h-2.2h-2.2h-2.1h-2.1h-2.1h-2.1h-2.1H133h-2.1h-2.1h-2.1h-2.2
	h-2.4H120h-2.2h-2.1h-2.1h-2.2h-2.1h-2.2H105h-2.2h-2.1h-2.1h-2.2h-2.2h-2.1H90h-2.1h-2.1h-2.2h-2.1h-2.1h-2.3h-2.2h-2.1h-2.1h-2.1
	h-2.1h-2.2h-2.1H60h-2.1h-2.1h-2.2h-2.1h-2.4H47h-2.2h-2.1h-2.1h-2.2h-2.1h-2.2H32h-2.1h-2.1h-2.1h-2.2h-2.1h-2.3H17h-2.2h-2.1h-2.1
	H8.5H6.4H4.2H2.1H0v-0.5l0,0h2.1h2.1h2.2h2.1l2.1-0.2l2.1-0.2l2.1-0.2l2.2-0.2l2.1-0.5l2.1-0.2l2.1-0.5l2.2-0.5l2.1-0.5l2.1-0.5
	l2.1-0.7l2.1-1l2.2-1.2l2.1-1.5l2.2-1.9l2.1-2.1l2.1-2.6l2.2-2.9l2.1-3.1l2.1-3.4l2.1-3.6l2.2-4l2.1-4.5l2.1-4.8l2.2-5l2.1-5
	l2.2-5.3l2.1-5.7l2.1-6.4l2.1-7.2l2.1-7.4l2.2-7.2l2.1-6.4l2.1-5.7l2.1-5l2.2-4.5l2.1-4.3l2.1-4.3l2.1-4.5l2.1-5.3l2.2-5.9l2.2-6.7
	L100,51l2.1-6.4l2.2-5.3l2.1-3.4l2.1-1.5l2.1,0.7l2.2,2.1l2.1,2.9l2.1,3.4l2.2,3.4l2.1,3.4l2.1,3.8l2.2,4.3l2.1,5.3l2.1,5.9l2.1,6.4
	l2.2,7.2l2.1,7.4l2.1,7.4l2.1,7.4l2.1,7.2l2.1,6.7l2.2,6.2l2.2,5.7l2.1,5.5l2.1,5.3l2.2,5l2.1,4.8l2.1,4.5l2.1,4.5l2.1,4.3l2.2,4.3
	l2.1,4l2.2,3.8l2.1,3.4l2.2,3.1l2.1,2.6l2.1,2.1l2.2,1.9l2.1,1.5l2.2,1.2l2.1,1l2.1,0.7l2.2,0.7l2.1,0.7l2.1,0.7l2.1,0.7l2.1,0.7
	l2.1,0.5l2.2,0.5l2.1,0.5l2.1,0.2L212.3,200.3z"/>
<path class="st1" d="M171.8,201.2H53.3"/>
<path id="mff3b34de01_5_" class="st2" d="M118.5,201.2c0-1.9-0.7-3.8-2-5.1c-1.3-1.4-3-2.1-4.8-2.1c-1.8,0-3.5,0.7-4.8,2.1
	c-1.3,1.4-2,3.2-2,5.1s0.7,3.8,2,5.1c1.3,1.4,3,2.1,4.8,2.1c1.8,0,3.5-0.7,4.8-2.1C117.7,204.9,118.5,203.1,118.5,201.2z"/>
</svg>
