<?xml version="1.0" encoding="utf-8"?>
<!-- Generator: Adobe Illustrator 27.9.0, SVG Export Plug-In . SVG Version: 6.00 Build 0)  -->
<svg version="1.1" id="Layer_1" xmlns="http://www.w3.org/2000/svg" xmlns:xlink="http://www.w3.org/1999/xlink" x="0px" y="0px"
	 viewBox="0 0 49.86 50.28" style="enable-background:new 0 0 49.86 50.28;" xml:space="preserve">
<style type="text/css">
	.st0{enable-background:new    ;}
	.st1{fill:#1C75BC;}
	.st2{fill:none;stroke:#1C75BC;stroke-width:1.7008;stroke-miterlimit:10;}
	.st3{fill:none;}
</style>
<g id="Layer_1_00000134970676927988489680000008788756067643073971_">
</g>
<g class="st0">
	<path class="st1" d="M7.79,15.98v-8.4h5.37v1.48H9.59v1.93h3.44v1.48H9.59v2.04h3.56v1.48H7.79z"/>
	<path class="st1" d="M14.42,14.82l1.05-1.16c0.61,0.67,1.37,0.99,2.12,0.99c0.85,0,1.32-0.4,1.32-1.12c0-0.59-0.31-0.87-1.13-1
		l-0.88-0.14c-1.51-0.25-2.14-1.18-2.14-2.41c0-1.61,1.12-2.55,3.02-2.55c1.29,0,2.28,0.43,2.87,1.12l-1.02,1.14
		C19.18,9.2,18.55,8.9,17.8,8.9c-0.81,0-1.22,0.34-1.22,1c0,0.58,0.34,0.83,1.16,0.98l0.88,0.16c1.35,0.24,2.13,1.04,2.13,2.36
		c0,1.58-1.11,2.73-3.21,2.73C16.13,16.12,15.06,15.62,14.42,14.82z"/>
	<path class="st1" d="M25.79,9.05v6.92h-1.81V9.05h-2.42V7.57h6.65v1.48H25.79z"/>
	<path class="st1" d="M29.41,15.98v-1.34h1.81V8.91h-1.81V7.57h5.42v1.34h-1.81v5.73h1.81v1.34H29.41z"/>
	<path class="st1" d="M40.92,12.23l0.1-2.35h-0.11l-1.56,4.32l-1.57-4.32h-0.11l0.1,2.35v3.74H36.2v-8.4h2.13l1.04,2.83h0.1
		l1.04-2.83h1.99v8.4h-1.56V12.23z"/>
</g>
<g class="st0">
	<path class="st1" d="M12.06,29.16l-0.53-2.02h-2.3l-0.52,2.02H6.88l2.28-8.4h2.55l2.28,8.4H12.06z M10.44,22.5h-0.1l-0.82,3.18
		h1.73L10.44,22.5z"/>
	<path class="st1" d="M18.57,22.23v6.92h-1.81v-6.92h-2.42v-1.48h6.65v1.48H18.57z"/>
	<path class="st1" d="M22.18,29.16v-1.34h1.81v-5.73h-1.81v-1.34h5.42v1.34h-1.81v5.73h1.81v1.34H22.18z"/>
	<path class="st1" d="M28.83,24.96c0-2.74,1.04-4.35,3.29-4.35c2.25,0,3.29,1.6,3.29,4.35c0,2.75-1.04,4.35-3.29,4.35
		C29.87,29.3,28.83,27.7,28.83,24.96z M33.48,25.68v-1.46c0-1.35-0.34-2.15-1.36-2.15s-1.36,0.81-1.36,2.15v1.47
		c0,1.35,0.34,2.15,1.36,2.15S33.48,27.04,33.48,25.68z"/>
	<path class="st1" d="M38.14,23.57h-0.13v5.59h-1.54v-8.4h2.17l1.91,5.59h0.13v-5.59h1.54v8.4h-2.17L38.14,23.57z"/>
</g>
<g class="st0">
	<path class="st1" d="M7.2,41.18l1.05-1.16c0.61,0.67,1.37,0.99,2.12,0.99c0.85,0,1.32-0.4,1.32-1.12c0-0.59-0.31-0.87-1.13-1
		l-0.88-0.14c-1.5-0.25-2.14-1.18-2.14-2.41c0-1.61,1.12-2.55,3.02-2.55c1.29,0,2.28,0.43,2.87,1.12l-1.02,1.14
		c-0.45-0.49-1.07-0.79-1.83-0.79c-0.81,0-1.22,0.34-1.22,1c0,0.58,0.34,0.83,1.16,0.98l0.88,0.16c1.35,0.24,2.13,1.04,2.13,2.36
		c0,1.58-1.11,2.73-3.21,2.73C8.91,42.48,7.84,41.98,7.2,41.18z"/>
	<path class="st1" d="M18.57,35.41v6.92h-1.81v-6.92h-2.42v-1.48h6.65v1.48H18.57z"/>
	<path class="st1" d="M26.52,42.34l-0.53-2.02h-2.3l-0.52,2.02h-1.83l2.28-8.4h2.55l2.28,8.4H26.52z M24.89,35.68h-0.1l-0.82,3.18
		h1.73L24.89,35.68z"/>
	<path class="st1" d="M33.02,35.41v6.92h-1.81v-6.92h-2.42v-1.48h6.65v1.48H33.02z"/>
	<path class="st1" d="M36.11,41.18l1.05-1.16c0.61,0.67,1.37,0.99,2.12,0.99c0.85,0,1.32-0.4,1.32-1.12c0-0.59-0.31-0.87-1.13-1
		l-0.88-0.14c-1.5-0.25-2.14-1.18-2.14-2.41c0-1.61,1.12-2.55,3.02-2.55c1.29,0,2.28,0.43,2.87,1.12l-1.02,1.14
		c-0.45-0.49-1.07-0.79-1.83-0.79c-0.81,0-1.22,0.34-1.22,1c0,0.58,0.34,0.83,1.16,0.98l0.88,0.16c1.35,0.24,2.13,1.04,2.13,2.36
		c0,1.58-1.11,2.73-3.21,2.73C37.82,42.48,36.74,41.98,36.11,41.18z"/>
</g>
<rect x="2.21" y="2.1" class="st2" width="45.35" height="45.35"/>
<rect x="7.22" y="6.3" class="st3" width="35.15" height="35.15"/>
</svg>
